<svg xmlns="http://www.w3.org/2000/svg" version="1.1" xmlns:xlink="http://www.w3.org/1999/xlink" xmlns:svgjs="http://svgjs.dev/svgjs" width="1500" height="1781" viewBox="0 0 1500 1781"><g transform="matrix(1,0,0,1,-1.2692307692307168,0.7210526315789139)"><svg viewBox="0 0 208 247" data-background-color="#0b022d" preserveAspectRatio="xMidYMid meet" height="1781" width="1500" xmlns="http://www.w3.org/2000/svg" xmlns:xlink="http://www.w3.org/1999/xlink"><g id="tight-bounds" transform="matrix(1,0,0,1,0.17599999999998772,-0.09999999999999432)"><svg viewBox="0 0 207.648 247.2" height="247.2" width="207.648"><g><svg viewBox="0 0 207.648 247.2" height="247.2" width="207.648"><g><svg viewBox="0 0 207.648 247.2" height="247.2" width="207.648"><g id="textblocktransform"><svg viewBox="0 0 207.648 247.2" height="247.2" width="207.648" id="textblock"><g><svg viewBox="0 0 207.648 247.2" height="247.2" width="207.648"><g transform="matrix(1,0,0,1,0,0)"><svg width="207.648" viewBox="1.35 -32.5 27.299999999999997 32.5" height="247.2" data-palette-color="#f7fff7"><path d="M19.3 0L10.7 0 10.7-25.3 1.35-25.3 1.35-32.5 28.65-32.5 28.65-25.3 19.3-25.3 19.3 0Z" opacity="1" transform="matrix(1,0,0,1,0,0)" fill="#f7fff7" class="wordmark-text-0" data-fill-palette-color="primary" id="text-0"></path></svg></g></svg></g></svg></g></svg></g><g></g></svg></g><defs></defs></svg><rect width="207.648" height="247.2" fill="none" stroke="none" visibility="hidden"></rect></g></svg></g></svg>